<mxfile host="app.diagrams.net" modified="2024-04-29T03:02:26.892Z" agent="Mozilla/5.0 (Windows NT 10.0; Win64; x64) AppleWebKit/537.36 (KHTML, like Gecko) Chrome/123.0.0.0 Safari/537.36" version="23.1.5" etag="hvyDv2Lgn9M2rzbIUGNQ" type="github">
  <diagram name="第 1 页" id="H32emt8JXpu_lkrLRL6j">
    <mxGraphModel>
      <root>
        <mxCell id="0" />
        <mxCell id="1" parent="0" />
      </root>
    </mxGraphModel>
  </diagram>
</mxfile>
